<svg xmlns="http://www.w3.org/2000/svg" width="293.925" height="143.464" viewBox="0 0 293.925 143.464"><g transform="translate(-326.681 -271.897)"><path d="M511.849,300.7c-2.713-7.881-7.27-8.813-9.618-8.735a4.423,4.423,0,0,0,.831-1.7,6.885,6.885,0,0,0-.246-2.957.509.509,0,0,0-.455-.349s-.1-.006-.26-.006a5.491,5.491,0,0,0-2.574.547,6.39,6.39,0,0,0-1.557,1.575,7.02,7.02,0,0,0-1.687-3.549c-1.853-2.077-4.949-3.13-9.26-3.13-4.1.009-7.177,1.042-9.14,3.071a7.685,7.685,0,0,0-1.962,3.571,4.372,4.372,0,0,0-1.352-1.253,6.791,6.791,0,0,0-2.9-.636h0a.5.5,0,0,0-.463.324,5.576,5.576,0,0,0-.319,2.892,6.071,6.071,0,0,0,.869,1.7c-2.119-.164-6.65.4-9.244,7.919-1.463,4.238-1.511,7.7-.14,10.276a7.207,7.207,0,0,0,2.59,2.77,4.567,4.567,0,0,0-1.6.826,6.8,6.8,0,0,0-1.627,2.485.505.505,0,0,0,.151.559,5.838,5.838,0,0,0,2.674,1.278,6.806,6.806,0,0,0,2.013-.246c-.753,2.13-1.6,7.133,4.687,11.29,3.269,2.164,6.186,3.26,8.668,3.26a6.424,6.424,0,0,0,4.587-1.717,4.461,4.461,0,0,0,.365,1.645,6.826,6.826,0,0,0,1.96,2.227.508.508,0,0,0,.573.009,6.071,6.071,0,0,0,1.955-2.119,5.277,5.277,0,0,0,.316-1.747,6.783,6.783,0,0,0,4.794,1.871c2.284,0,4.838-.982,7.593-2.923,3.514-2.471,5.533-5.156,6.005-7.981a7.25,7.25,0,0,0-.337-3.721,5.549,5.549,0,0,0,1.564.265h0a3.11,3.11,0,0,0,.4-.025,6.794,6.794,0,0,0,2.728-1.172.506.506,0,0,0,.189-.541,5.986,5.986,0,0,0-1.407-2.518,6.094,6.094,0,0,0-1.984-.991C510.916,311.6,514.25,307.679,511.849,300.7Zm-3.989,12.113a.508.508,0,0,0,.142.932,7.458,7.458,0,0,1,2.548,1.046,4.423,4.423,0,0,1,.988,1.683,5.308,5.308,0,0,1-1.957.782,5.762,5.762,0,0,1-2.644-.633.507.507,0,0,0-.639.748,6.041,6.041,0,0,1,.777,4.23c-.433,2.535-2.312,4.991-5.586,7.294-2.58,1.817-4.938,2.738-7.008,2.738a5.681,5.681,0,0,1-4.894-2.557.507.507,0,0,0-.944.3,7.459,7.459,0,0,1-.2,2.745,4.517,4.517,0,0,1-1.295,1.463,5.38,5.38,0,0,1-1.351-1.616,5.566,5.566,0,0,1-.2-2.7.508.508,0,0,0-.5-.583.52.52,0,0,0-.394.181.553.553,0,0,0-.072.109,5.085,5.085,0,0,1-4.7,2.493c-2.28,0-5.008-1.039-8.109-3.09-7.37-4.872-4.062-10.726-3.919-10.972a.507.507,0,0,0-.6-.735,8.411,8.411,0,0,1-2.661.5,4.245,4.245,0,0,1-1.809-.821,5.278,5.278,0,0,1,1.2-1.728,5.52,5.52,0,0,1,2.554-.913.507.507,0,0,0,.08-.993,6.1,6.1,0,0,1-3.408-2.95c-1.223-2.32-1.151-5.5.215-9.45,2.178-6.315,5.781-7.258,7.735-7.258a5.334,5.334,0,0,1,1.582.217.508.508,0,0,0,.55-.81,8.16,8.16,0,0,1-1.471-2.354,4.063,4.063,0,0,1,.171-1.929,5.375,5.375,0,0,1,2.054.5,5.1,5.1,0,0,1,1.683,2.068.507.507,0,0,0,.968-.226,6.56,6.56,0,0,1,1.868-4.349c1.767-1.825,4.6-2.753,8.472-2.763,3.941,0,6.78.935,8.433,2.778a6.1,6.1,0,0,1,1.524,4.343.507.507,0,0,0,.933.324,9.586,9.586,0,0,1,2.065-2.477,4.472,4.472,0,0,1,1.909-.407,5.354,5.354,0,0,1,.122,2.105,5.083,5.083,0,0,1-1.48,2.216.507.507,0,0,0,.491.86c.02,0,6.43-1.954,9.813,7.884C513.725,309.266,508.1,312.674,507.86,312.817Z" transform="translate(75.18 5.86)" fill="#161615"/><path d="M347.7,326.161c0-5.424-3.95-8.777-10.29-8.777h-7.9v31.331h4.5v-13.6H335.9c2.3,0,4.181.737,8.316,7.166l4.135,6.43h5.374c-2.16-2.984-2.94-4.043-4.271-6.2-2.39-3.9-4.135-6.8-6.984-8.685A7.834,7.834,0,0,0,347.7,326.161Zm-10.795,4.913h-2.9v-9.832h2.9c4.364,0,6.109,1.8,6.156,4.731C343.109,328.6,341.73,331.074,336.907,331.074Z" transform="translate(1.58 25.388)" fill="#161615"/><path d="M380.5,333.2c0-8.726-6.522-16.08-16.859-16.08-10.156,0-16.817,7.4-16.817,16.08,0,8.5,6.479,16.082,16.725,16.082C374.162,349.28,380.5,341.651,380.5,333.2Zm-29.036,0c0-6.889,5.193-11.943,12.177-11.943,7.029,0,12.219,5.055,12.219,11.943,0,6.846-5.19,11.946-12.219,11.946C356.659,345.144,351.466,340.045,351.466,333.2Z" transform="translate(11.244 25.24)" fill="#161615"/><path d="M381.249,348.716h4.5V332.179l11.624-14.795h-5.423l-8.5,10.8-8.407-10.8h-5.42l11.622,14.748Z" transform="translate(23.97 25.388)" fill="#161615"/><path d="M399.871,317.266,386.41,348.781h4.6l3.95-9.235h13.324l4.179,9.235h4.6L403.04,317.266ZM396.7,335.5l4.684-11.348,5.056,11.348Z" transform="translate(33.338 25.322)" fill="#161615"/><path d="M410.473,317.384v31.332h18.655v-4.043H414.975V317.384Z" transform="translate(46.768 25.388)" fill="#161615"/><path d="M346.816,363.682h6.018v6.434a22.016,22.016,0,0,1-6.8,1.239c-7.443,0-12.68-4.914-12.68-11.9a11.848,11.848,0,0,1,12.08-11.991,23.339,23.339,0,0,1,11.258,3.08V346c-4.914-2.068-7.488-2.664-11.163-2.664-9.556,0-16.815,7.032-16.815,16.262,0,9.19,7.074,15.9,16.677,15.9a27.463,27.463,0,0,0,11.945-2.574V359.64H346.816Z" transform="translate(1.135 39.87)" fill="#161615"/><path d="M366.5,360.043a7.836,7.836,0,0,0,5.238-7.674c0-5.419-3.951-8.771-10.293-8.771h-7.9v31.33h4.5v-13.6h1.882c2.3,0,4.18.737,8.316,7.167l4.135,6.43h5.374c-2.16-2.984-2.94-4.042-4.272-6.2C371.094,364.82,369.346,361.925,366.5,360.043Zm-5.558-2.756h-2.893v-9.83h2.893c4.364,0,6.109,1.789,6.156,4.729C367.143,354.8,365.766,357.286,360.942,357.286Z" transform="translate(14.994 40.02)" fill="#161615"/><path d="M378.012,361.145h12.817V357.1H378.012v-9.466h13.276V343.6h-17.78v31.33H391.7v-4.042h-13.69Z" transform="translate(26.136 40.019)" fill="#161615"/><path d="M394.967,361.145h12.817V357.1H394.967v-9.466h13.278V343.6H390.466v31.33h18.191v-4.042h-13.69Z" transform="translate(35.601 40.019)" fill="#161615"/><path d="M432.2,367.852,410.975,343.6h-3.583v31.33h4.229V350.809l20.948,24.119h3.859V343.6H432.2Z" transform="translate(45.048 40.019)" fill="#161615"/><path d="M465.278,365.19,456.55,343.6h-4.273l-8.684,21.592-8.64-21.592h-4.5L443.133,375.2h.875l10.382-25.636L464.681,375.2h.87L478.28,343.6h-4.457Z" transform="translate(57.92 40.019)" fill="#161615"/><rect width="4.503" height="31.33" transform="translate(543.188 383.617)" fill="#161615"/><path d="M479.03,359.456c0-6.89,5.33-11.991,12.5-11.991a20.627,20.627,0,0,1,10.792,3.261V345.9a27.207,27.207,0,0,0-10.745-2.573c-9.975,0-17.185,6.984-17.185,16.538,0,6.571,5.145,15.622,16.908,15.622a22.922,22.922,0,0,0,11.346-2.758V367.82a20.528,20.528,0,0,1-10.932,3.534C484.176,371.354,479.03,366.488,479.03,359.456Z" transform="translate(82.444 39.87)" fill="#161615"/><path d="M520.329,343.6v13.644H502.78V343.6h-4.5v31.33h4.5V361.284h17.549v13.644h4.5V343.6Z" transform="translate(95.776 40.019)" fill="#161615"/><path d="M434.424,326.3l-3.23,14.153a5.685,5.685,0,0,0,.7.905,4.08,4.08,0,0,0,.975.731,5.178,5.178,0,0,0,1.391.5,8.784,8.784,0,0,0,1.893.178,5.9,5.9,0,0,0,2.7-.642,7.786,7.786,0,0,0,2.287-1.767,8.843,8.843,0,0,0,2.185-5.8,5.232,5.232,0,0,0-1.089-3.479,3.691,3.691,0,0,0-2.985-1.292,4.033,4.033,0,0,0-1.664.382,8.1,8.1,0,0,0-1.979,1.379h-.051l1.893-8.3-.125-.185-4.621.27-.176.759c.277.033.545.062.81.087a2.234,2.234,0,0,1,.665.151.965.965,0,0,1,.427.368,1.391,1.391,0,0,1,.146.693,2.081,2.081,0,0,1-.042.419C434.5,325.944,434.465,326.11,434.424,326.3Zm.826,6.507c.192-.167.4-.354.633-.569a4.641,4.641,0,0,1,.706-.542,5.386,5.386,0,0,1,.8-.4,2.241,2.241,0,0,1,.827-.148,2.534,2.534,0,0,1,1.239.273,2.069,2.069,0,0,1,.787.75,3.191,3.191,0,0,1,.394,1.12,7.274,7.274,0,0,1,.12,1.331,10.947,10.947,0,0,1-.338,2.713,7.98,7.98,0,0,1-1.027,2.395,5.205,5.205,0,0,1-1.5,1.571,3.279,3.279,0,0,1-1.856.58,2.968,2.968,0,0,1-.965-.15,2.6,2.6,0,0,1-.787-.438,2.041,2.041,0,0,1-.477-.527,1.45,1.45,0,0,1-.226-.55Z" transform="translate(58.334 28.555)" fill="#161615"/><path d="M444.41,328.047A7.088,7.088,0,0,0,442.1,329.8a8.715,8.715,0,0,0-1.469,2.523,8.574,8.574,0,0,0-.552,3.1,4.963,4.963,0,0,0,1.292,3.6,4.47,4.47,0,0,0,3.359,1.332,6.757,6.757,0,0,0,3.138-.692,7.291,7.291,0,0,0,2.315-1.843,7.872,7.872,0,0,0,1.448-2.585,9.2,9.2,0,0,0,.5-2.948,5.029,5.029,0,0,0-1.253-3.553,4.493,4.493,0,0,0-3.475-1.357A6.726,6.726,0,0,0,444.41,328.047Zm4.536,1.1a4.633,4.633,0,0,1,.628,2.661,13.032,13.032,0,0,1-.29,2.778,9.63,9.63,0,0,1-.813,2.406,5.329,5.329,0,0,1-1.4,1.775,3.032,3.032,0,0,1-1.969.7,2.1,2.1,0,0,1-1.862-.919,4.9,4.9,0,0,1-.615-2.7,14.473,14.473,0,0,1,.237-2.456,9.6,9.6,0,0,1,.746-2.415,5.006,5.006,0,0,1,1.577-2.075,3.343,3.343,0,0,1,1.949-.637A2.083,2.083,0,0,1,448.945,329.15Z" transform="translate(63.291 30.965)" fill="#161615"/><path d="M456.914,330.485a1.038,1.038,0,0,0,.335.748,1.357,1.357,0,0,0,1.008.336,1.384,1.384,0,0,0,.77-.182,1.767,1.767,0,0,0,.491-.517,2.074,2.074,0,0,0,.285-.689,3.189,3.189,0,0,0,.1-.77,2.963,2.963,0,0,0-.129-.994,1.7,1.7,0,0,0-.405-.608,1.518,1.518,0,0,0-.637-.335,2.873,2.873,0,0,0-.773-.1,2.821,2.821,0,0,0-1.6.514,25.538,25.538,0,0,0-2.25,1.8h-.072a2.606,2.606,0,0,0-.425-1.628,1.71,1.71,0,0,0-1.429-.545,4.954,4.954,0,0,0-1.287.213,12.544,12.544,0,0,0-1.728.651l-.19.8c.16-.04.382-.1.665-.157a3.208,3.208,0,0,1,.7-.1.95.95,0,0,1,1.189,1.176,4.794,4.794,0,0,1-.12.883q-.117.6-.178.9l-1.828,8.091h2.337l2.018-8.936a9.35,9.35,0,0,1,1.309-1.265,6.561,6.561,0,0,1,1.1-.717,4.085,4.085,0,0,1,.826-.319,2.5,2.5,0,0,1,.5-.081c-.136.318-.265.636-.391.957A2.514,2.514,0,0,0,456.914,330.485Z" transform="translate(68.261 30.965)" fill="#161615"/><path d="M463.776,327.375a6.748,6.748,0,0,0-2.984.672,7.014,7.014,0,0,0-2.308,1.753,8.56,8.56,0,0,0-1.477,2.523,8.672,8.672,0,0,0-.545,3.1,4.956,4.956,0,0,0,1.292,3.6,4.46,4.46,0,0,0,3.358,1.332,6.758,6.758,0,0,0,3.135-.692,7.25,7.25,0,0,0,2.314-1.843,7.789,7.789,0,0,0,1.448-2.585,9.209,9.209,0,0,0,.5-2.948,5.009,5.009,0,0,0-1.256-3.553A4.484,4.484,0,0,0,463.776,327.375Zm1.895,7.214a9.9,9.9,0,0,1-.82,2.406,5.322,5.322,0,0,1-1.4,1.775,3.032,3.032,0,0,1-1.97.7,2.085,2.085,0,0,1-1.859-.919,4.842,4.842,0,0,1-.617-2.7,14.139,14.139,0,0,1,.234-2.456,9.736,9.736,0,0,1,.749-2.415,4.98,4.98,0,0,1,1.577-2.075,3.334,3.334,0,0,1,1.946-.637,2.088,2.088,0,0,1,1.815.888,4.608,4.608,0,0,1,.628,2.661A13.345,13.345,0,0,1,465.671,334.589Z" transform="translate(72.437 30.965)" fill="#161615"/><path d="M477.143,338.723a1.577,1.577,0,0,1-1.017-.256,1.222,1.222,0,0,1-.307-.968,4.769,4.769,0,0,1,.1-.731c.067-.344.14-.687.223-1.03L478,327.7l-.15-.187-2.184.151-2.175,9.4a6.5,6.5,0,0,1-1.686,1.273,3.664,3.664,0,0,1-1.636.421,1.329,1.329,0,0,1-1.142-.488,2.17,2.17,0,0,1-.362-1.324,4.716,4.716,0,0,1,.076-.693c.056-.3.126-.63.207-.979l1.1-4.618a6.789,6.789,0,0,0,.153-.774,4.515,4.515,0,0,0,.047-.614,1.783,1.783,0,0,0-.464-1.328,1.985,1.985,0,0,0-1.463-.472,4.407,4.407,0,0,0-1.194.229,14.387,14.387,0,0,0-1.716.664l-.189.806c.159-.045.377-.1.658-.167a3.047,3.047,0,0,1,.7-.1.933.933,0,0,1,1.169,1.162,4.285,4.285,0,0,1-.084.81c-.051.284-.122.606-.2.975l-.968,3.956a11.06,11.06,0,0,0-.237,1.222,5.681,5.681,0,0,0-.053.714,2.523,2.523,0,0,0,.665,1.817,2.426,2.426,0,0,0,1.859.693,5.145,5.145,0,0,0,1.271-.131,6.381,6.381,0,0,0,1.083-.432,7.4,7.4,0,0,0,1.035-.656c.346-.259.714-.542,1.1-.852h.073a2.06,2.06,0,0,0,.5,1.376,1.862,1.862,0,0,0,1.508.584,4.385,4.385,0,0,0,1.279-.212q.694-.213,1.731-.634l.187-.8a3.9,3.9,0,0,1-.673.164A3.971,3.971,0,0,1,477.143,338.723Z" transform="translate(77.326 31.015)" fill="#161615"/><path d="M474.891,344.929a3.1,3.1,0,0,0,1.03.424,7.312,7.312,0,0,0,1.694.162,8.836,8.836,0,0,0,2.728-.391,5.979,5.979,0,0,0,2.208-1.318,8.025,8.025,0,0,0,1.717-2.44,16.953,16.953,0,0,0,1.219-3.777l2.1-9.837-.153-.187-2.287.587a4.971,4.971,0,0,0-1.287-.544,6.128,6.128,0,0,0-4.466.438,7.191,7.191,0,0,0-2.269,1.765,8.808,8.808,0,0,0-1.558,2.6,8.224,8.224,0,0,0-.566,3.01,5.683,5.683,0,0,0,.975,3.528,3.309,3.309,0,0,0,2.791,1.284,3.77,3.77,0,0,0,1.3-.217,7.048,7.048,0,0,0,1.156-.547,6.876,6.876,0,0,0,.955-.637l.706-.562.086.025a12.62,12.62,0,0,1-.908,3.124,8,8,0,0,1-1.237,1.94,4.052,4.052,0,0,1-2.907,1.318h-.38c-.065-.148-.16-.374-.3-.67a5.186,5.186,0,0,0-.411-.774,2.519,2.519,0,0,0-.524-.58,1.2,1.2,0,0,0-.787-.269,1.157,1.157,0,0,0-.921.382,1.364,1.364,0,0,0-.34.941,1.658,1.658,0,0,0,.134.634A1.329,1.329,0,0,0,474.891,344.929Zm6.692-6.583a3.4,3.4,0,0,1-1.733.506,2.18,2.18,0,0,1-1.12-.256,1.868,1.868,0,0,1-.689-.72,3.193,3.193,0,0,1-.371-1.08,7.94,7.94,0,0,1-.107-1.354,9.513,9.513,0,0,1,.4-2.711,8.385,8.385,0,0,1,1.033-2.3,5.944,5.944,0,0,1,1.539-1.6,3.194,3.194,0,0,1,1.817-.578,2.856,2.856,0,0,1,1.083.176,1.927,1.927,0,0,1,.7.472,1.743,1.743,0,0,1,.391.682,2.5,2.5,0,0,1,.109.717l-1.416,6.745A7.791,7.791,0,0,1,481.583,338.346Z" transform="translate(82.368 30.965)" fill="#161615"/><path d="M487.733,326.3l-3.726,16.085h2.342l2.122-9.165a6.957,6.957,0,0,1,1.748-1.438,3.573,3.573,0,0,1,1.711-.508,1.42,1.42,0,0,1,1.173.488,2.024,2.024,0,0,1,.4,1.32,4.47,4.47,0,0,1-.083.7c-.055.291-.129.619-.218.975l-1.223,4.656a6.842,6.842,0,0,0-.164.779,3.923,3.923,0,0,0-.05.6,1.78,1.78,0,0,0,.5,1.279,2,2,0,0,0,1.5.517,4,4,0,0,0,1.259-.206c.414-.139,1-.357,1.748-.656l.185-.8a4.324,4.324,0,0,1-.678.171,3.932,3.932,0,0,1-.679.083,1.616,1.616,0,0,1-1.022-.256,1.213,1.213,0,0,1-.312-.968,4.173,4.173,0,0,1,.112-.806c.075-.347.15-.653.217-.916l1.05-4.009a8.694,8.694,0,0,0,.216-1.136,7.884,7.884,0,0,0,.067-.8,2.506,2.506,0,0,0-.668-1.815,2.468,2.468,0,0,0-1.86-.693,4.8,4.8,0,0,0-2.287.533,14.275,14.275,0,0,0-2.283,1.566h-.05l2-8.64-.131-.185-4.662.27-.176.759c.277.033.558.062.837.087a2,2,0,0,1,.654.151.92.92,0,0,1,.425.368,1.269,1.269,0,0,1,.153.693,2.176,2.176,0,0,1-.039.424C487.81,325.944,487.773,326.107,487.733,326.3Z" transform="translate(87.811 28.555)" fill="#161615"/><path d="M505.086,339.661a7.217,7.217,0,0,0,2.314-1.843,7.811,7.811,0,0,0,1.444-2.585,9.169,9.169,0,0,0,.5-2.948,5.015,5.015,0,0,0-1.253-3.553,4.5,4.5,0,0,0-3.473-1.357,6.716,6.716,0,0,0-2.985.672,7.039,7.039,0,0,0-2.314,1.753,8.55,8.55,0,0,0-1.472,2.523,8.639,8.639,0,0,0-.548,3.1,4.956,4.956,0,0,0,1.292,3.6,4.459,4.459,0,0,0,3.358,1.332A6.753,6.753,0,0,0,505.086,339.661Zm-4.623-1.111a4.882,4.882,0,0,1-.617-2.7,14.473,14.473,0,0,1,.237-2.456,9.67,9.67,0,0,1,.745-2.415A5.033,5.033,0,0,1,502.4,328.9a3.361,3.361,0,0,1,1.949-.637,2.076,2.076,0,0,1,1.814.888,4.62,4.62,0,0,1,.628,2.661,13.34,13.34,0,0,1-.285,2.778,9.7,9.7,0,0,1-.823,2.406,5.268,5.268,0,0,1-1.4,1.775,3.012,3.012,0,0,1-1.966.7A2.093,2.093,0,0,1,500.463,338.55Z" transform="translate(95.229 30.965)" fill="#161615"/><path d="M515.706,323.513a6.16,6.16,0,0,0-1.839,1.254,8.59,8.59,0,0,0-1.471,1.973,9.065,9.065,0,0,0-.951,2.608l-.181.846h-2.407l-.26,1.141h2.438l-2.3,10.773a13.4,13.4,0,0,1-1.178,3.493,2.154,2.154,0,0,1-1.645,1.295c-.107-.174-.237-.383-.38-.622a4.747,4.747,0,0,0-.394-.572,2.085,2.085,0,0,0-.522-.436,1.3,1.3,0,0,0-.681-.173,1.119,1.119,0,0,0-.935.411,1.5,1.5,0,0,0-.324.949,1.3,1.3,0,0,0,.52,1.053,2.551,2.551,0,0,0,1.614.418,5.694,5.694,0,0,0,3.883-1.756,8.4,8.4,0,0,0,2.474-4.531l2.2-10.3h3.1l.265-1.141H513.6l.281-1.32a12.634,12.634,0,0,1,1.192-3.655,1.965,1.965,0,0,1,1.527-1.133c.15.224.273.429.376.611a4.4,4.4,0,0,0,.4.584,1.974,1.974,0,0,0,.516.443,1.308,1.308,0,0,0,.676.168,1.109,1.109,0,0,0,.955-.413,1.561,1.561,0,0,0,.305-.95,1.309,1.309,0,0,0-.514-1.053,2.573,2.573,0,0,0-1.617-.418A4.856,4.856,0,0,0,515.706,323.513Z" transform="translate(98.232 28.555)" fill="#161615"/><path d="M327.123,290.069a13.964,13.964,0,0,1-.443-1.652A9.679,9.679,0,0,0,327.123,290.069Z" transform="translate(0 9.22)" fill="#161615"/><path d="M405.67,327.074c47.458-5.633,103.827-48.627,154.665-50.559,54.069-2.054,56.9,48.349,56.9,48.349s3.476-54-59.467-52.952c-56.315.933-118.075,53.458-171.882,52.042-47.174-1.24-57-19.092-58.92-24.666C329.274,306.5,342.414,334.576,405.67,327.074Z" transform="translate(0.159 0)" fill="#161615"/><path d="M502.888,310.5c1.264-1.028,4.2-4.157,2.213-9.918-2.139-6.217-5.824-7.146-7.83-7.146-.145,0-.279,0-.4.014a3.841,3.841,0,0,0,.887-1.617,5.268,5.268,0,0,0-.2-2.314l-.055-.165-.173-.009s-.068,0-.184,0a4.36,4.36,0,0,0-2.016.419,4.306,4.306,0,0,0-1.223,1.566,5.528,5.528,0,0,0-1.349-2.948c-1.465-1.644-3.925-2.477-7.361-2.477-3.267.008-5.711.826-7.267,2.431a6.063,6.063,0,0,0-1.617,3.161,3.748,3.748,0,0,0-1.242-1.256,5.289,5.289,0,0,0-2.269-.5h0l-.173,0-.061.164a4.735,4.735,0,0,0-.249,2.23,5,5,0,0,0,.876,1.6,5.663,5.663,0,0,0-.764-.051c-1.754,0-4.98.82-6.876,6.309-1.165,3.37-1.209,6.131-.132,8.207a5.829,5.829,0,0,0,2.432,2.476,4.557,4.557,0,0,0-1.606.8,6.784,6.784,0,0,0-1.363,1.644l-.111.19.174.136a6.011,6.011,0,0,0,2.194,1.088,5.278,5.278,0,0,0,1.793-.2c-.6,1.452-1.661,5.6,3.623,9.093,2.615,1.73,4.941,2.605,6.915,2.605a4.963,4.963,0,0,0,3.849-1.606,3.839,3.839,0,0,0,.291,1.636,5.3,5.3,0,0,0,1.535,1.742l.142.1.143-.1a4.659,4.659,0,0,0,1.518-1.644,4.888,4.888,0,0,0,.249-1.725,5.315,5.315,0,0,0,4.025,1.733,10.843,10.843,0,0,0,6.042-2.333c5.972-4.205,5.212-8.383,4.645-9.921a4.3,4.3,0,0,0,1.909.313,7.992,7.992,0,0,0,2.082-.619l.193-.09-.058-.207a5.16,5.16,0,0,0-1.133-2.086A4.591,4.591,0,0,0,502.888,310.5ZM479.62,290.171a4.755,4.755,0,0,1,1.41-.151c.82,0,1.784.079,2.635.148.636.051,1.184.1,1.532.1l.1,0c.223-.008.591-.044,1.017-.086.781-.076,1.848-.182,2.781-.182a3.4,3.4,0,0,1,2.093.428,4.007,4.007,0,0,1,.972,4.475,14.831,14.831,0,0,1-2.258,4.075.131.131,0,0,1-.15.036,13.263,13.263,0,0,0-4.463-1.108,12.837,12.837,0,0,0-4.625,1.331.131.131,0,0,1-.058.014.126.126,0,0,1-.1-.048c-.1-.122-2.325-2.984-2.541-5.086C477.755,292.038,478.358,290.6,479.62,290.171Zm-12.126,16.745a13.945,13.945,0,0,1,1.374-3.793c.293-.639.545-1.189.65-1.508.073-.217.168-.587.279-1.014.41-1.591,1.027-3.994,1.892-4.459a3.7,3.7,0,0,1,1.758-.446,4.479,4.479,0,0,1,2.777,1.058,14.758,14.758,0,0,1,3.056,3.518.123.123,0,0,1-.017.153,13.306,13.306,0,0,0-2.568,3.814,12.787,12.787,0,0,0-.332,4.8.129.129,0,0,1-.087.136,16.978,16.978,0,0,1-4.38.781,5.161,5.161,0,0,1-1.267-.137C468.609,309.308,467.467,308.249,467.495,306.917Zm15.959,14.4c-.883,1.457-1.957,2.259-3.027,2.259a2.125,2.125,0,0,1-.667-.108,13.98,13.98,0,0,1-3.233-2.434c-.52-.463-.969-.863-1.242-1.056-.182-.129-.5-.321-.865-.544-1.41-.86-3.543-2.161-3.74-3.127a4,4,0,0,1,1.917-4.16,14.787,14.787,0,0,1,4.257-1.893.132.132,0,0,1,.142.062,13.263,13.263,0,0,0,2.895,3.568,12.815,12.815,0,0,0,4.494,1.723.126.126,0,0,1,.106.122C484.493,315.884,484.553,319.514,483.453,321.317Zm2.273-9.3a2,2,0,0,1-.059.731,1.345,1.345,0,0,1-.435.463,1.511,1.511,0,0,1-.436-.5,1.456,1.456,0,0,1-.058-.732l0,0s-.757,1.586-3.306-.1c-1.924-1.268-1-2.842-1-2.842a2,2,0,0,1-.717.139,1.364,1.364,0,0,1-.562-.3,1.524,1.524,0,0,1,.358-.553,1.493,1.493,0,0,1,.69-.251s-1.795-.483-.862-3.188c.816-2.361,2.431-1.793,2.431-1.793a1.991,1.991,0,0,1-.382-.626,1.331,1.331,0,0,1,.075-.629,1.558,1.558,0,0,1,.647.142,1.389,1.389,0,0,1,.464.561s-.055-1.857,2.635-1.864c2.783-.006,2.562,1.876,2.562,1.876a2.6,2.6,0,0,1,.55-.645,1.322,1.322,0,0,1,.622-.114,1.484,1.484,0,0,1,.055.656,1.353,1.353,0,0,1-.4.612s1.675-.541,2.549,2a2.409,2.409,0,0,1-.795,3.023,2.029,2.029,0,0,1,.678.284,1.355,1.355,0,0,1,.305.553,1.115,1.115,0,0,1-1.324.1s1.025,1.416-1.2,2.984C486.6,313.564,485.727,312.016,485.727,312.016Zm14.157,4.835a13.987,13.987,0,0,1-3.283,2.368c-.6.36-1.109.67-1.374.873-.179.137-.46.385-.785.67-1.2,1.053-3,2.643-4,2.643a.862.862,0,0,1-.09,0,4,4,0,0,1-3.4-3.065,14.66,14.66,0,0,1-.548-4.623.124.124,0,0,1,.1-.115,13.382,13.382,0,0,0,4.271-1.714,12.789,12.789,0,0,0,2.97-3.778.127.127,0,0,1,.148-.065c.148.044,3.635,1.063,5.03,2.647C500.3,314.248,500.655,315.765,499.884,316.852Zm2.864-9.12a3.948,3.948,0,0,1-3.761,2.128c-.1,0-.2,0-.3-.008a14.769,14.769,0,0,1-4.52-1.1.125.125,0,0,1-.073-.136,13.366,13.366,0,0,0-.114-4.6,12.794,12.794,0,0,0-2.505-4.107.129.129,0,0,1-.008-.161c.092-.123,2.262-3.032,4.234-3.789,1.932-.745,3.5-.531,4.238.555A13.871,13.871,0,0,1,501,300.4c.131.693.245,1.293.344,1.617.067.213.2.562.355.966C502.293,304.52,503.183,306.85,502.748,307.732Z" transform="translate(77.004 7.817)" fill="#161615"/></g></svg>