<svg xmlns="http://www.w3.org/2000/svg" viewBox="434.848 4705.346 23.898 23.898"><defs><style>.a{fill:#F0DFD0;}</style></defs><g transform="translate(434.848 4705.346)"><path class="a" d="M18.381,24.9H7.518A6.518,6.518,0,0,1,1,18.381V7.518A6.518,6.518,0,0,1,7.518,1H18.381A6.518,6.518,0,0,1,24.9,7.518V18.381A6.518,6.518,0,0,1,18.381,24.9ZM7.518,3.173A4.345,4.345,0,0,0,3.173,7.518V18.381a4.345,4.345,0,0,0,4.345,4.345H18.381a4.345,4.345,0,0,0,4.345-4.345V7.518a4.345,4.345,0,0,0-4.345-4.345Z" transform="translate(-1 -1)"/><path class="a" d="M12.518,19.035a6.518,6.518,0,1,1,6.518-6.518A6.518,6.518,0,0,1,12.518,19.035Zm0-10.863a4.345,4.345,0,1,0,4.345,4.345A4.345,4.345,0,0,0,12.518,8.173Z" transform="translate(-0.569 -0.569)"/><ellipse class="a" cx="1.086" cy="1.086" rx="1.086" ry="1.086" transform="translate(17.381 3.259)"/></g></svg>