<svg xmlns="http://www.w3.org/2000/svg" viewBox="344.514 4707.96 23.011 19.045"><defs><style>.a{fill:#F0DFD0;}</style></defs><g transform="translate(344.514 4707.96)"><path class="a" d="M21.611,8.939a4.814,4.814,0,0,0-3.242,4.841l.05.823-.831-.1a13.52,13.52,0,0,1-7.915-3.9L8.575,9.51l-.281.806a4.859,4.859,0,0,0,1.031,4.977c.665.706.515.806-.631.387a1.939,1.939,0,0,0-.782-.184,6.032,6.032,0,0,0,.6,2.253A5.376,5.376,0,0,0,10.789,19.9l.816.387-.966.014c-.931,0-.964.017-.864.371a5.027,5.027,0,0,0,3.109,2.758l1.031.353-.9.538A9.308,9.308,0,0,1,8.56,25.565,4.9,4.9,0,0,0,7.2,25.7,12.742,12.742,0,0,0,10.4,27.179a14.031,14.031,0,0,0,10.907-1.244,14.611,14.611,0,0,0,5.537-6.524,17.329,17.329,0,0,0,1.13-5.042c0-.774.05-.874.98-1.8a11.182,11.182,0,0,0,1.164-1.294c.167-.32.149-.32-.7-.034-1.413.5-1.613.438-.914-.319a4.908,4.908,0,0,0,1.13-1.8c0-.05-.25.034-.532.184a9.121,9.121,0,0,1-1.464.571l-.9.286-.814-.557a6.783,6.783,0,0,0-1.413-.74A5.678,5.678,0,0,0,21.611,8.939Z" transform="translate(-7.196 -8.714)"/></g></svg>