<svg xmlns="http://www.w3.org/2000/svg" width="480.612" height="137.405" viewBox="0 0 480.612 137.405"><g transform="translate(-720 -472)"><path d="M293.116,157.213a26.19,26.19,0,0,0,23.217,13.295c12.02,0,21.034-7.013,21.034-18.029,0-8.105-4.736-13.112-14.841-17.574l-6.83-3c-5.1-2.277-7.011-3.734-7.011-6.921,0-3.732,3.188-5.827,7.466-5.827,4.554,0,8.377,2.277,11.473,6.92L336,119.609c-3.732-6.92-10.654-11.382-19.85-11.382-11.382,0-19.941,6.737-19.941,17.026,0,8.014,5.374,13.2,14.57,17.3l6.464,2.912c5.736,2.641,7.648,3.916,7.648,7.468,0,4.1-3.185,6.646-8.559,6.646-6.555,0-10.835-3.37-14.749-8.741Z" transform="translate(685.651 438.89)"/><path d="M296.575,169.415l-26.041-31.778,23.037-28.317H278.911l-22.946,27.862V109.319H243.674v60.1h12.291V138.092l25.769,31.323Z" transform="translate(685.651 438.89)"/><path d="M110.378,109.319,96.992,144.647,81.241,108.227h-4.1l-15.751,36.6-13.386-35.51H34.349l24.037,61.188h4.007l16.844-37.7,16.753,37.7H100l24.039-61.188Z" transform="translate(685.651 438.89)"/><path d="M463.789,94.306h12.293V68.354h26.587V94.306h12.293V34.21H502.668V57.247H476.081V34.21H463.789Z" transform="translate(685.651 438.89)"/><path d="M399.625,64.258c-.364,17.208,14.387,31.5,31.96,31.14,11.564,0,21.4-5.555,26.587-14.933l-9.287-6.556q-6.422,10.107-17.209,10.107c-11.2,0-19.394-8.194-19.394-19.667s8.194-19.85,19.394-19.85q10.789,0,17.209,10.107l9.287-6.555c-5.371-9.378-15.114-14.934-26.5-14.934-17.482-.364-32.324,13.932-32.051,31.141Z" transform="translate(685.651 438.89)"/><rect width="12.293" height="60.095" transform="translate(1066.775 473.1)"/><path d="M363.677,34.21,350.293,69.538,334.54,33.117h-4.1L314.69,69.72,301.307,34.21H287.648L311.687,95.4h4.005l16.844-37.7,16.755,37.7H353.3L377.335,34.21Z" transform="translate(685.651 438.89)"/><path d="M259.659,94.306h38.606V83.2H271.95V34.21H259.659Z" transform="translate(685.651 438.89)"/><path d="M110.378,34.21,96.992,69.538,81.241,33.117h-4.1L61.391,69.72,48.005,34.21H34.349L58.386,95.4h4.007L79.237,57.7,95.99,95.4H100L124.036,34.21Z" transform="translate(685.651 438.89)"/><path d="M121.12,64.258c-.273,17.208,14.57,31.5,31.869,31.14,17.3.365,32.325-13.932,32.051-31.14.274-17.209-14.751-31.505-32.051-31.141-17.3-.364-32.142,13.932-31.869,31.141Zm51.263,0c0,11.564-8.285,19.758-19.3,19.758-11.109,0-19.3-8.194-19.3-19.758S141.971,44.5,153.08,44.5c11.018,0,19.3,8.377,19.3,19.759Z" transform="translate(685.651 438.89)"/><path d="M189.612,64.258c-.273,17.208,14.567,31.5,31.867,31.14,17.3.365,32.324-13.932,32.051-31.14.273-17.209-14.751-31.505-32.051-31.141-17.3-.364-32.14,13.932-31.867,31.141Zm51.261,0c0,11.564-8.285,19.758-19.3,19.758-11.109,0-19.3-8.194-19.3-19.758S210.461,44.5,221.57,44.5c11.018,0,19.3,8.377,19.3,19.759Z" transform="translate(685.651 438.89)"/><path d="M121.12,139.367c-.273,17.209,14.57,31.5,31.869,31.141,17.3.364,32.325-13.932,32.051-31.141.274-17.208-14.751-31.505-32.051-31.14-17.3-.365-32.142,13.932-31.869,31.14Zm51.263,0c0,11.564-8.285,19.759-19.3,19.759-11.109,0-19.3-8.2-19.3-19.759s8.194-19.758,19.3-19.758c11.018,0,19.3,8.376,19.3,19.758Z" transform="translate(685.651 438.89)"/><path d="M241.215,169.415l-17.026-23.584a18.6,18.6,0,0,0,10.562-17.117c0-11.564-9.105-19.4-21.671-19.4H190.5v60.1h12.293V148.2H211.8l15.569,21.216Zm-38.424-49.26H213.08c5.553,0,9.1,3.461,9.1,8.559,0,5.189-3.369,8.65-9.1,8.65H202.791Z" transform="translate(685.651 438.89)"/></g></svg>